<svg width="66" height="52" viewBox="0 0 66 52" fill="none" xmlns="http://www.w3.org/2000/svg">
<g clip-path="url(#clip0_4_358)">
<path opacity="0.4" d="M13.5 9.75C11.7023 9.75 10.25 11.2023 10.25 13C10.25 14.7977 11.7023 16.25 13.5 16.25H23.25C25.0477 16.25 26.5 14.7977 26.5 13C26.5 11.2023 25.0477 9.75 23.25 9.75H13.5ZM52.5 34.125C53.7929 34.125 55.0329 34.6386 55.9471 35.5529C56.8614 36.4671 57.375 37.7071 57.375 39C57.375 40.2929 56.8614 41.5329 55.9471 42.4471C55.0329 43.3614 53.7929 43.875 52.5 43.875C51.2071 43.875 49.9671 43.3614 49.0529 42.4471C48.1386 41.5329 47.625 40.2929 47.625 39C47.625 37.7071 48.1386 36.4671 49.0529 35.5529C49.9671 34.6386 51.2071 34.125 52.5 34.125ZM52.5 48.75C55.0859 48.75 57.5658 47.7228 59.3943 45.8943C61.2228 44.0658 62.25 41.5859 62.25 39C62.25 36.4141 61.2228 33.9342 59.3943 32.1057C57.5658 30.2772 55.0859 29.25 52.5 29.25C49.9141 29.25 47.4342 30.2772 45.6057 32.1057C43.7772 33.9342 42.75 36.4141 42.75 39C42.75 41.5859 43.7772 44.0658 45.6057 45.8943C47.4342 47.7228 49.9141 48.75 52.5 48.75ZM7 39C7 44.3828 11.3672 48.75 16.75 48.75C22.1328 48.75 26.5 44.3828 26.5 39H21.625C21.625 41.6914 19.4414 43.875 16.75 43.875C14.0586 43.875 11.875 41.6914 11.875 39H7Z" fill="#EA1D2C"/>
<path d="M33.8125 5.6875C33.8125 4.33672 34.8992 3.25 36.25 3.25H40.4445C42.8617 3.25 45.025 4.78359 45.8172 7.06875L46.6398 9.43516L51.8195 6.84531C52.2664 6.62188 52.7641 6.5 53.2719 6.5H54.125C55.0187 6.5 55.75 7.23125 55.75 8.125V14.625C55.75 15.5188 55.0187 16.25 54.125 16.25H53.2719C52.7641 16.25 52.2664 16.1281 51.8195 15.9047L48.275 14.1273L51.2812 22.7906C51.6875 22.7602 52.0938 22.75 52.5 22.75C56.9383 22.75 60.9602 24.5273 63.8852 27.4016C64.85 28.3461 64.8602 29.8898 63.9156 30.8445C62.9711 31.7992 61.4273 31.8195 60.4727 30.875C58.4109 28.8641 55.6078 27.625 52.5 27.625C46.9039 27.625 42.2422 31.6672 41.2977 36.9992C41.0945 38.1672 40.0789 39.0102 38.9008 39.0102H34.625C34.5336 39.0102 34.4523 39.0102 34.3609 39H3.75C1.95234 39 0.5 37.5477 0.5 35.75V32.5C0.5 25.3195 6.31953 19.5 13.5 19.5H23.25C25.0477 19.5 26.5 20.9523 26.5 22.75V29.25C26.5 31.0477 27.9523 32.5 29.75 32.5H37.6008C39.307 28.5898 42.5164 25.4719 46.4977 23.8977L41.2062 8.67344C41.0945 8.34844 40.7797 8.125 40.4344 8.125H36.25C34.8992 8.125 33.8125 7.03828 33.8125 5.6875Z" fill="#EA1D2C"/>
</g>
<defs>
<clipPath id="clip0_4_358">
<rect width="65" height="52" fill="white" transform="translate(0.5)"/>
</clipPath>
</defs>
</svg>
